<?xml version="1.0" encoding="UTF-8" standalone="no"?>
<!-- Generator: Adobe Illustrator 19.0.0, SVG Export Plug-In . SVG Version: 6.00 Build 0)  -->

<svg
   version="1.1"
   id="Layer_1"
   x="0px"
   y="0px"
   viewBox="0 0 305.406 305.406"
   style="enable-background:new 0 0 305.406 305.406;"
   xml:space="preserve"
   sodipodi:docname="license_default.svg"
   inkscape:version="1.2.2 (b0a8486541, 2022-12-01)"
   xmlns:inkscape="http://www.inkscape.org/namespaces/inkscape"
   xmlns:sodipodi="http://sodipodi.sourceforge.net/DTD/sodipodi-0.dtd"
   xmlns="http://www.w3.org/2000/svg"
   xmlns:svg="http://www.w3.org/2000/svg"><defs
   id="defs55">
	

		
	
			
			
			
			
			
			
			
		</defs><sodipodi:namedview
   id="namedview53"
   pagecolor="#ffffff"
   bordercolor="#000000"
   borderopacity="0.25"
   inkscape:showpageshadow="2"
   inkscape:pageopacity="0.0"
   inkscape:pagecheckerboard="0"
   inkscape:deskcolor="#d1d1d1"
   showgrid="false"
   inkscape:zoom="2.3607918"
   inkscape:cx="152.703"
   inkscape:cy="153.12659"
   inkscape:window-width="1720"
   inkscape:window-height="1375"
   inkscape:window-x="3640"
   inkscape:window-y="33"
   inkscape:window-maximized="0"
   inkscape:current-layer="Layer_1" />
<path
   d="m 77.202,127.888 c 0,4.971 4.029,9 9,9 h 130.575 c 4.971,0 9,-4.029 9,-9 0,-4.971 -4.029,-9 -9,-9 H 86.202 c -4.971,0 -9,4.029 -9,9 z"
   id="path2"
   style="fill:#c87137" /><path
   d="m 86.202,168.538 h 130.575 c 4.971,0 9,-4.029 9,-9 0,-4.971 -4.029,-9 -9,-9 H 86.202 c -4.971,0 -9,4.029 -9,9 0,4.971 4.029,9 9,9 z"
   id="path4"
   style="fill:#c87137" /><path
   d="m 86.202,60.538 h 44.341 c 4.971,0 9,-4.029 9,-9 0,-4.971 -4.029,-9 -9,-9 H 86.202 c -4.971,0 -9,4.029 -9,9 0,4.971 4.029,9 9,9 z"
   id="path6"
   style="fill:#c87137" /><path
   d="M 149.503,242.374 H 86.202 c -4.971,0 -9,4.029 -9,9 0,4.971 4.029,9 9,9 h 63.301 c 4.971,0 9,-4.029 9,-9 0,-4.971 -4.029,-9 -9,-9 z"
   id="path8"
   style="fill:#c87137" /><path
   d="M 149.503,214.512 H 86.202 c -4.971,0 -9,4.029 -9,9 0,4.971 4.029,9 9,9 h 63.301 c 4.971,0 9,-4.029 9,-9 0,-4.971 -4.029,-9 -9,-9 z"
   id="path10"
   style="fill:#c87137" /><path
   d="M 267.067,70.613 199.091,2.636 C 197.402,0.948 195.113,0 192.727,0 H 44.703 c -4.971,0 -9,4.029 -9,9 v 287.406 c 0,4.971 4.029,9 9,9 h 216 c 4.971,0 9,-4.029 9,-9 V 76.977 c 0,-2.387 -0.948,-4.676 -2.636,-6.364 z m -67.34,-41.885 41.249,41.249 h -41.249 z m 51.976,258.678 h -198 V 18 h 128.023 v 60.977 c 0,4.971 4.029,9 9,9 h 60.977 z"
   id="path12"
   style="fill:#c87137" /><path
   d="m 199.976,208.512 c -16.078,0 -29.158,13.081 -29.158,29.159 0,16.078 13.08,29.158 29.158,29.158 16.078,0 29.158,-13.08 29.158,-29.158 0,-16.078 -13.08,-29.159 -29.158,-29.159 z m 0,40.317 c -6.152,0 -11.158,-5.005 -11.158,-11.158 0,-6.153 5.006,-11.159 11.158,-11.159 6.152,0 11.158,5.006 11.158,11.159 0,6.153 -5.006,11.158 -11.158,11.158 z"
   id="path14"
   style="fill:#c87137" />
<g
   id="g22">
</g>
<g
   id="g24">
</g>
<g
   id="g26">
</g>
<g
   id="g28">
</g>
<g
   id="g30">
</g>
<g
   id="g32">
</g>
<g
   id="g34">
</g>
<g
   id="g36">
</g>
<g
   id="g38">
</g>
<g
   id="g40">
</g>
<g
   id="g42">
</g>
<g
   id="g44">
</g>
<g
   id="g46">
</g>
<g
   id="g48">
</g>
<g
   id="g50">
</g>
</svg>
